<svg xmlns="http://www.w3.org/2000/svg" width="535" height="124" viewBox="0 0 535 124" role="img" aria-label="fasterwhisper — frontend">
<g transform="translate(0 10) scale(0.1015625)">
  <defs>
    <linearGradient id="tile" x1="0" y1="0" x2="0" y2="1">
      <stop offset="0" stop-color="#262019"/><stop offset="1" stop-color="#0e0d0b"/>
    </linearGradient>
    <linearGradient id="bar" x1="0" y1="0" x2="0" y2="1">
      <stop offset="0" stop-color="#ffb95e"/><stop offset="1" stop-color="#ff9e2c"/>
    </linearGradient>
  </defs>
  <rect width="1024" height="1024" rx="224" fill="url(#tile)"/>
  <g fill="url(#bar)" transform="translate(512 512) skewX(-9) translate(-512 -512)">
    <rect x="152" y="392" width="104" height="240" rx="52"/>
    <rect x="308" y="292" width="104" height="440" rx="52"/>
    <rect x="464" y="192" width="104" height="640" rx="52"/>
    <rect x="620" y="332" width="104" height="360" rx="52"/>
    <rect x="776" y="432" width="104" height="160" rx="52"/>
  </g>
</g>
<path transform="translate(144.00 56.00) scale(0.060000 -0.060000)" fill="#221b13" d="M118.74032299410408 0V449.2809536016406H24.700076903358113V526.2596770058959H118.74032299410408V649.3606767495514Q118.74032299410408 688.560369136119 141.32004614201486 708.7801845680594Q163.89976928992567 729 205.27941553447835 729H341.75852345552426V653.340938220969H215.35836964880798V526.2596770058959H335.6385542168675V449.2809536016406H215.35836964880798V0Z"/><path transform="translate(164.10 56.00) scale(0.060000 -0.060000)" fill="#221b13" d="M259.94001538067164 -9.059984619328377Q208.7600615226865 -9.059984619328377 167.61009997436554 7.5299923096641885Q126.46013842604461 24.119969238656754 97.34016918738786 54.73993847731351Q68.22019994873109 85.35990771597027 52.66021532940272 128.0398615739554Q37.10023071007434 170.71981543194053 37.10023071007434 221.95975390925403V302.41989233529864Q37.10023071007434 372.65983081261214 64.22019994873109 424.8397846705973Q91.34016918738784 477.0197385285824 141.9901307357088 505.6697000769034Q192.64009228402975 534.3196616252243 259.94001538067164 534.3196616252243Q319.70007690335814 534.3196616252243 366.87016149705204 510.5296077928736Q414.04024609074594 486.7395539605229 436.86029223276086 443.39938477313507H441.9802614714176L448.8800307613432 526.2596770058959H538.6582927454499V0H448.8800307613432L441.04024609074594 82.9202768520892H436.86029223276086Q414.04024609074594 39.52012304537298 366.87016149705204 15.230069213022304Q319.70007690335814 -9.059984619328377 259.94001538067164 -9.059984619328377ZM290.179184824404 65.97872340425533Q343.4996154832094 65.97872340425533 383.41989233529864 91.51896949500129Q423.34016918738786 117.05921558574724 441.9802614714176 164.19969238656753V362.1199692386568Q423.34016918738786 407.32043065880544 383.41989233529864 432.86067674955143Q343.4996154832094 458.40092284029737 290.179184824404 458.40092284029737Q244.2589079723148 458.40092284029737 210.09869264291208 441.79082286593183Q175.93847731350937 425.1807228915663 156.94834657780058 393.930530633171Q137.95821584209176 362.6803383747757 137.95821584209176 317.82004614201486V207.43963086388106Q137.95821584209176 164.51935401179185 156.94834657780058 132.29915406306077Q175.93847731350937 100.07895411432966 210.09869264291208 83.0288387592925Q244.2589079723148 65.97872340425533 290.179184824404 65.97872340425533Z"/><path transform="translate(198.24 56.00) scale(0.060000 -0.060000)" fill="#221b13" d="M256.81927710843377 -10.940015380671623Q187.25967700589592 -10.940015380671623 137.5398615739554 10.179953857985133Q87.82004614201487 31.299923096641887 60.58010766470136 67.53986157395539Q33.34016918738785 103.77980005126891 27.28018456805947 151.07972314791078H125.6582927454499Q129.53832350679312 119.8595231991797 145.99846193283773 98.86939246347092Q162.45860035888234 77.87926172776211 191.14880799794923 67.58920789541143Q219.83901563701616 57.299154063060755 259.699307869777 57.299154063060755Q319.89976928992564 57.299154063060755 348.5299923096642 79.07933863112024Q377.1602153294027 100.8595231991797 377.1602153294027 136.65983081261214Q377.1602153294027 174.4601384260446 351.7000769033581 192.48026147141758Q326.2399384773135 210.50038451679058 278.95975390925406 223.26044603947705L198.41989233529864 238.32043065880544Q145.58010766470136 250.44039989746219 111.81017687772366 269.2103306844399Q78.04024609074597 287.9802614714176 61.570238400410155 316.6602153294027Q45.10023071007434 345.34016918738786 45.10023071007434 384.34016918738786Q45.10023071007434 433 71.67008459369393 466.4498846449628Q98.23993847731352 499.89976928992564 145.109715457575 517.5797231479107Q191.97949243783646 535.2596770058959 250.05921558574724 535.2596770058959Q314.89900025634455 535.2596770058959 361.7087926172776 517.1996923865676Q408.5185849782107 499.13970776723914 435.6184311714945 464.89976928992564Q462.71827736477826 430.65983081261214 466.7782619841066 383.94001538067164H372.7600615226865Q369.94001538067164 414.2801845680595 353.8299154063061 432.4202768520892Q337.7198154319405 450.56036913611894 310.96962317354524 459.82043065880544Q284.21943091515 469.08049218149193 251.23916944373238 469.08049218149193Q215.31889259164316 469.08049218149193 190.56870033324788 459.44039989746216Q165.81850807485262 449.80030761343244 153.23840041015126 432.87016149705204Q140.6582927454499 415.94001538067164 140.6582927454499 393.65983081261214Q140.6582927454499 361.5596001025378 163.20840810048708 344.069469366829Q185.75852345552423 326.5793386311202 233.15867726224045 314.6393232504486L311.5785695975391 300.75929248910535Q364.45860035888234 290.75929248910535 401.3485003845168 271.25929248910535Q438.23840041015126 251.75929248910535 458.09830812612154 221.51935401179185Q477.95821584209176 191.27941553447835 477.95821584209176 145.55960010253781Q477.95821584209176 94.0797231479108 449.00833119712894 59.24980774160472Q420.0584465521661 24.41989233529864 370.59869264291206 6.739938477313509Q321.13893873365805 -10.940015380671623 256.81927710843377 -10.940015380671623Z"/><path transform="translate(227.22 56.00) scale(0.060000 -0.060000)" fill="#221b13" d="M197.0994616764932 0Q158.83978467059728 0 138.88003076134325 18.599846193283774Q118.9202768520892 37.19969238656755 118.9202768520892 73.69930786977699V677.5998461932837H214.5983081261215V81.27864650089721H336.918738784927V0ZM24.700076903358113 449.2809536016406V526.2596770058959H328.398615739554V449.2809536016406Z"/><path transform="translate(247.80 56.00) scale(0.060000 -0.060000)" fill="#221b13" d="M294.39938477313507 -9.119969238656754Q234.67956934119456 -9.119969238656754 187.542977602958 7.507739950881081Q140.4063858647214 24.135449140418917 106.46325445504718 55.307663047522965Q72.52012304537298 86.47987695462702 54.28018456805947 131.2798000512689Q36.04024609074596 176.07972314791078 36.04024609074596 231.49961548320942V295.70007690335814Q36.04024609074596 370.18098807555975 67.96013842604461 423.5703709924069Q99.88003076134325 476.95975390925406 157.67034759652037 505.6697000769034Q215.4606644316975 534.3796462445526 294.44690505597964 534.3796462445526Q351.179184824404 534.3796462445526 396.3690079466803 518.2296846962317Q441.5588310689567 502.0797231479108 474.0647882928569 470.90983663862414Q506.57074551675714 439.73995012933744 523.8445883441259 396.42995968399714Q541.1184311714945 353.1199692386568 541.1184311714945 298.70007690335814V238.80030761343247H120.63855421686748V306.7395539605229H455.44039989746216L444.32043065880544 288.91950781850807V326.4996154832094Q444.32043065880544 368.196784074919 425.8302999230966 398.228615057198Q407.34016918738786 428.2604460394771 373.76993078697774 444.2505767751859Q340.19969238656756 460.24070751089465 293.39938477313507 460.24070751089465Q245.7042501922584 460.24070751089465 209.7313868238913 442.81056139451425Q173.75852345552423 425.3804152781338 154.8283773391438 394.32582503928757Q135.8982312227634 363.27123480044133 135.8982312227634 321.5596001025378V204.7000769033581Q135.8982312227634 163.94775698538837 155.358369648808 132.44350166623943Q174.81850807485262 100.93924634709049 210.35875416559855 83.4491156113817Q245.89900025634452 65.95898487567291 294.6393232504486 65.95898487567291Q354.8397846705973 65.95898487567291 392.44001538067164 89.7091771340682Q430.04024609074594 113.45936939246347 440.7403229941041 156.13970776723917H535.1784157908229Q528.0584465521661 104.83978467059728 494.10856190720324 67.53986157395539Q460.1586772622405 30.23993847731351 408.8188925916432 10.559984619328377Q357.4791079210459 -9.119969238656754 294.39938477313507 -9.119969238656754Z"/><path transform="translate(280.86 56.00) scale(0.060000 -0.060000)" fill="#221b13" d="M55.92027685208921 0V526.2596770058959H143.81850807485262L151.47833888746476 442.15944629582157H158.47833888746476Q180.17841579082287 488.03947705716485 209.52845424250194 509.76954627018716Q238.87849269418098 531.4996154832095 286.5185849782107 531.4996154832095H314.1184311714945L320.358369648808 438.081261215073H279.13893873365805Q245.7387849269418 438.081261215073 224.09869264291206 429.29120738272235Q202.45860035888234 420.50115355037167 185.31850807485262 402.07100743399127Q168.17841579082287 383.64086131761087 151.5983081261215 353.72058446552165V0Z"/>
<path transform="translate(300.12 56.00) scale(0.060000 -0.060000)" fill="#bf6f12" d="M161.55994189524054 0 17.059984619328375 538.8600358882338H188.6001879859865L260.98009057506624 207.56019823976757L271.6800820302486 146.34016918738786H278.34008373921216L289.3600786123216 207.56019823976757L355.73998120140135 538.8600358882338H537.580193112877L602.3200888661027 206.90019653080407L612.3400837392122 146.34016918738786H618.0200803212851L629.7000769033581 206.90019653080407L703.7399812014014 538.8600358882338H872.620182859096L727.4602238742202 0H515.7799709476203L456.7200717764676 286.15978808852435L447.02008032128515 354.059813722977H440.6800820302486L429.3200888661027 286.15978808852435L370.26018969495 0Z"/><path transform="translate(352.02 56.00) scale(0.060000 -0.060000)" fill="#bf6f12" d="M45.11996923865675 0V729H217.6001879859865V466.74006664957705H224.26018969495001Q254.90019653080407 505.78005639579595 300.25019225839526 526.6500469964966Q345.6001879859865 547.5200375971973 401.6401777322054 547.5200375971973Q467.62018285909596 547.5200375971973 512.7701871315048 522.8600358882338Q557.9201914039136 498.2000341792703 580.4101939673589 453.0500299068615Q602.9001965308041 407.90002563445273 602.9001965308041 343.6000170896351V0H429.41997778347434V319.41997778347434Q429.41997778347434 351.21994360420405 419.0299923096642 373.1299239511236Q408.6400068358541 395.0399042980432 386.72002905237974 406.3998974621892Q364.8000512689054 417.75989062633516 333.7200717764676 417.75989062633516Q295.86012133640946 417.75989062633516 265.91015124327095 400.97991967871485Q235.96018115013243 384.1999487310946 217.6001879859865 356.0399897462189V0Z"/><path transform="translate(389.04 56.00) scale(0.060000 -0.060000)" fill="#bf6f12" d="M45.11996923865675 0V538.8600358882338H217.6001879859865V0ZM45.77997094762027 604.0599846193284V737.5800222165257H218.26018969495V604.0599846193284Z"/><path transform="translate(403.32 56.00) scale(0.060000 -0.060000)" fill="#bf6f12" d="M285.02008032128515 -10.339998291036487Q199.8600358882338 -10.339998291036487 142.94001538067164 11.98000512689054Q86.01999487310945 34.300008544817565 56.3799880372554 72.94001538067162Q26.73998120140135 111.58002221652568 20.079979492437836 161.88003076134325H192.26018969495001Q194.94018627702297 138.46005297786894 206.00017089635136 122.5700675040588Q217.06015551567975 106.68008203024866 237.6501324446723 98.49008801162095Q258.24010937366484 90.30009399299325 286.70007690335814 90.30009399299325Q328.90002563445273 90.30009399299325 348.8300008544818 104.8800734854311Q368.7599760745108 119.46005297786893 368.7599760745108 143.26001879859865Q368.7599760745108 169.0599846193284 348.69999145518244 182.27997094762026Q328.6400068358541 195.49995727591215 288.5600273434162 205.8599504400581L202.6200119627446 221.5199521490216Q141.3799880372554 234.83995556694865 104.9099803469196 256.30996325728444Q68.43997265658379 277.77997094762026 52.269973511065544 308.2599760745108Q36.0999743655473 338.73998120140135 36.0999743655473 377.73998120140135Q36.0999743655473 433 68.36999060070067 470.95001281722637Q100.64000683585405 508.90002563445273 156.21003161582502 528.3800307613433Q211.78005639579595 547.8600358882338 280.6600871571392 547.8600358882338Q353.90011108262837 547.8600358882338 408.8101341536358 529.2000341792702Q463.72015722464323 510.54003247030676 496.8201743142784 473.90002563445273Q529.9201914039136 437.26001879859865 534.580193112877 383.33999829103647H370.3599931641459Q369.33999829103647 407.0799794924378 357.1300093992993 421.6199692386567Q344.9200205075622 436.1599589848757 325.6700418696061 443.0199521490216Q306.42006323165003 449.8799453131676 283.6400922840297 449.8799453131676Q258.520123045373 449.8799453131676 241.27014440741692 443.8399555669487Q224.02016576946082 437.7999658207297 215.64017773220542 426.5699820558831Q207.26018969495001 415.33999829103647 207.26018969495001 400.26001879859865Q207.26018969495001 377.1600444330513 225.31017687772368 364.77005895924117Q243.3601640604973 352.38007348543107 284.7601469708622 341.0400751943946L367.38015893360677 328.3600786123216Q419.06015551567975 318.3600786123216 459.8501666239426 298.8600786123216Q500.6401777322054 279.3600786123216 524.1001879859865 246.72007177646756Q547.5601982397676 214.0800649406135 547.5601982397676 161.16004443305135Q547.5601982397676 104.88003076134325 514.1101854225412 66.75002136204392Q480.66017260531487 28.620011962744595 421.60014526189866 9.140006835854054Q362.54011791848245 -10.339998291036487 285.02008032128515 -10.339998291036487Z"/><path transform="translate(436.08 56.00) scale(0.060000 -0.060000)" fill="#bf6f12" d="M45.11996923865675 -167V538.8600358882338H201.3601640604973L217.6001879859865 466.74006664957705H224.26018969495001Q246.28018456805947 504.8000512689054 290.3101768777237 526.1600444330513Q334.34016918738786 547.5200375971973 392.02016576946085 547.5200375971973Q445.0001708963514 547.5200375971973 487.3201743142784 530.530035033752Q529.6401777322054 513.5400324703068 559.1301802956507 481.72002905237974Q588.620182859096 449.90002563445273 604.7801845680594 405.4200205075622Q620.940186277023 360.94001538067164 620.940186277023 306.9600102537811V230.58002221652566Q620.940186277023 159.9400153806716 592.9501837135778 105.46001025378108Q564.9601811501325 50.98000512689054 513.3101768777237 20.660001708963513Q461.66017260531487 -9.660001708963513 392.02016576946085 -9.660001708963513Q334.34016918738786 -9.660001708963513 290.3101768777237 12.359993164145944Q246.28018456805947 34.3799880372554 224.26018969495001 71.11996923865675H217.6001879859865V-167ZM328.4000683585405 115.46013842604461Q362.8400410151243 115.46013842604461 388.94001538067164 128.3401264633Q415.0399897462189 141.2201145005554 428.92997522002906 165.47009313851152Q442.81996069383916 189.7200717764676 442.81996069383916 221.8400410151243V316.01999487310945Q442.81996069383916 349.4799624028027 428.7599760745108 373.7299410407588Q414.69999145518244 397.97991967871485 388.94001538067164 410.3599077159703Q363.18003930616084 422.73989575322565 328.4000683585405 422.73989575322565Q291.5601127915919 422.73989575322565 262.93014611638046 407.1299239511236Q234.30017944116895 391.5199521490216 217.6001879859865 362.66000170896353V176.20003417927026Q234.64017773220542 148.0000854481757 263.10014526189866 131.73011193711017Q291.5601127915919 115.46013842604461 328.4000683585405 115.46013842604461Z"/><path transform="translate(473.58 56.00) scale(0.060000 -0.060000)" fill="#bf6f12" d="M318.4000683585405 -10.320003417927028Q251.4800478509784 -10.320003417927028 197.97572507870004 7.585161510834001Q144.47140230642168 25.49032643959503 106.09569431735679 58.38517005565157Q67.7199863282919 91.2800136717081 47.07997949243784 139.08002221652566Q26.439972656583784 186.88003076134325 26.439972656583784 246.50004272408785V292.69999145518244Q26.439972656583784 371.99138446670025 62.559984619328375 429.2757059050582Q98.67999658207297 486.5600273434162 164.37573338393642 517.3700333247884Q230.07147018579985 548.1800393061608 318.9229268552519 548.1800393061608Q382.98009057506624 548.1800393061608 435.07011022814663 530.530035033752Q487.160129881227 512.8800307613433 524.7271008177019 480.010795152041Q562.2940717541767 447.1415595427387 582.3071230342275 400.7307814803329Q602.3201743142783 354.320003417927 602.3201743142783 295.69999145518244V226.79996582072974H177.0401606425703V324.1400495599419H439.8399555669487L427.5199521490216 308.1200546868324V341.50004272408785Q427.5199521490216 370.165185462499 414.12996667521145 390.5125679512786Q400.73998120140135 410.8599504400581 376.4700076903358 421.7499359138683Q352.2000341792703 432.6399213876784 317.4000683585405 432.6399213876784Q282.7573055341935 432.6399213876784 257.05873479734544 420.90993762283176Q231.3601640604973 409.17995385798514 218.1301802956507 387.58215470577966Q204.90019653080407 365.9843555535742 204.90019653080407 337.1600444330513V201.69999145518244Q204.90019653080407 173.42802700162352 218.96018115013243 151.88405537041785Q233.02016576946082 130.34008373921216 258.9601384260446 117.95009826540203Q284.90011108262837 105.5601127915919 321.0400751943946 105.5601127915919Q363.2400239254892 105.5601127915919 391.8399982910365 121.81009142954798Q420.4399726565838 138.06007006750406 428.13996411176623 167.54003247030676H596.9801760232419Q588.6601726053149 113.2400239254892 550.2101597880885 72.94001538067162Q511.76014697086214 32.64000683585405 452.020123045373 11.160001708963513Q392.2800991198838 -10.320003417927028 318.4000683585405 -10.320003417927028Z"/><path transform="translate(509.82 56.00) scale(0.060000 -0.060000)" fill="#bf6f12" d="M45.11996923865675 0V538.8600358882338H202.02016576946082L216.28018456805947 463.7600615226865H223.2801845680595Q241.98017602324188 508.4400581047595 269.8301717508331 527.4700504144237Q297.6801674784243 546.5000427240878 341.72015722464323 546.5000427240878H375.3201743142784L383.9601811501324 388.8798598649919H320.54011791848245Q293.14013500811757 388.8798598649919 275.10014526189866 382.18986584636417Q257.06015551567975 375.49987182773646 243.52016576946085 362.76988806288983Q229.9801760232419 350.0399042980432 217.6001879859865 330.9199350593865V0Z"/>
<path transform="translate(144.00 114.00) scale(0.040000 -0.040000)" fill="#bf6f12" d="M69.60009765625 19.2005615234375V144.198974609375L467.7999267578125 314.19921875V269.2005615234375L69.60009765625 439.2008056640625V563.5992431640625L530.39990234375 366.5989990234375V216.2008056640625Z"/>
<path transform="translate(203.20 114.00) scale(0.040000 -0.040000)" fill="#9a9082" d="M97.9998779296875 0V710H542.0001220703125V612.799072265625H157.00067138671875L202.801025390625 659.3994140625V395.40045166015625H524.0001220703125V298.99957275390625H202.801025390625V0Z"/><path transform="translate(232.80 114.00) scale(0.040000 -0.040000)" fill="#9a9082" d="M67.1998291015625 0V710H287.60009765625Q400.60015869140625 710 465.5001525878906 653.1999816894531Q530.400146484375 596.3999633789062 530.400146484375 497.5999755859375Q530.400146484375 446.7999267578125 507.7001647949219 408.09991455078125Q485.00018310546875 369.39990234375 448.400146484375 347.2998962402344Q411.80010986328125 325.19989013671875 371.199951171875 321.9998779296875L367.199951171875 334.39990234375Q441.0001220703125 331.199951171875 477.7001953125 300.7999267578125Q514.4002685546875 270.39990234375 520.4002685546875 201.9998779296875L538.000244140625 0H432.799072265625L417.19915771484375 181.99932861328125Q414.19915771484375 217.39947509765625 402.1991882324219 238.0994873046875Q390.19921875 258.79949951171875 364.9992980957031 267.699462890625Q339.79937744140625 276.59942626953125 296.3995361328125 276.59942626953125H172.0009765625V0ZM172.0009765625 375.40032958984375H286Q351.99951171875 375.40032958984375 386.79925537109375 406.3001708984375Q421.5989990234375 437.20001220703125 421.5989990234375 493.39971923828125Q421.5989990234375 550.3994140625 386.79925537109375 580.7992553710938Q351.99951171875 611.1990966796875 286 611.1990966796875H172.0009765625Z"/><path transform="translate(262.40 114.00) scale(0.040000 -0.040000)" fill="#9a9082" d="M300 -16Q215.39996337890625 -16 156.49993896484375 27.0Q97.59991455078125 70 66.79989624023438 152.89999389648438Q35.9998779296875 235.79998779296875 35.9998779296875 354Q35.9998779296875 473.79998779296875 66.79989624023438 556.7999877929688Q97.59991455078125 639.7999877929688 156.49993896484375 682.8999938964844Q215.39996337890625 726 300 726Q384.60003662109375 726 443.6000671386719 682.8999938964844Q502.60009765625 639.7999877929688 533.3001098632812 556.7999877929688Q564.0001220703125 473.79998779296875 564.0001220703125 354Q564.0001220703125 235.79998779296875 533.3001098632812 152.89999389648438Q502.60009765625 70 443.6000671386719 27.0Q384.60003662109375 -16 300 -16ZM300 82.0008544921875Q349.99969482421875 82.0008544921875 384.699462890625 112.20071411132812Q419.39923095703125 142.40057373046875 437.2991027832031 203.10037231445312Q455.198974609375 263.8001708984375 455.198974609375 354Q455.198974609375 444.1998291015625 437.2991027832031 505.3996276855469Q419.39923095703125 566.5994262695312 384.699462890625 597.2992858886719Q349.99969482421875 627.9991455078125 300 627.9991455078125Q250.2003173828125 627.9991455078125 215.40054321289062 597.2992858886719Q180.60076904296875 566.5994262695312 162.70089721679688 505.3996276855469Q144.801025390625 444.1998291015625 144.801025390625 354Q144.801025390625 263.8001708984375 162.70089721679688 203.10037231445312Q180.60076904296875 142.40057373046875 215.40054321289062 112.20071411132812Q250.2003173828125 82.0008544921875 300 82.0008544921875Z"/><path transform="translate(292.00 114.00) scale(0.040000 -0.040000)" fill="#9a9082" d="M67.9998779296875 0V710H195.6002197265625L446.79925537109375 106.80279541015625L429.1990966796875 103.2027587890625V710H532.0001220703125V0H404.3997802734375L153.20074462890625 603.1972045898438L170.8009033203125 607.5972290039062V0Z"/><path transform="translate(321.60 114.00) scale(0.040000 -0.040000)" fill="#9a9082" d="M247.59942626953125 0V611.1990966796875H40V710H560V611.1990966796875H352.40057373046875V0Z"/><path transform="translate(351.20 114.00) scale(0.040000 -0.040000)" fill="#9a9082" d="M87.9998779296875 0V710H524.0001220703125V611.1990966796875H192.801025390625V404.200439453125H512.0001220703125V307.799560546875H192.801025390625V98.8009033203125H532.0001220703125V0Z"/><path transform="translate(380.80 114.00) scale(0.040000 -0.040000)" fill="#9a9082" d="M67.9998779296875 0V710H195.6002197265625L446.79925537109375 106.80279541015625L429.1990966796875 103.2027587890625V710H532.0001220703125V0H404.3997802734375L153.20074462890625 603.1972045898438L170.8009033203125 607.5972290039062V0Z"/><path transform="translate(410.40 114.00) scale(0.040000 -0.040000)" fill="#9a9082" d="M82.799560546875 0V710H255.599853515625Q350.20001220703125 710 419.50006103515625 668.6000061035156Q488.80010986328125 627.2000122070312 526.4001159667969 547.7000122070312Q564.0001220703125 468.20001220703125 564.0001220703125 354.20001220703125Q564.0001220703125 240.20001220703125 526.4001159667969 161.20001220703125Q488.80010986328125 82.20001220703125 419.50006103515625 41.100006103515625Q350.20001220703125 0 255.599853515625 0ZM187.6007080078125 98.8009033203125H252.79998779296875Q349.59954833984375 98.8009033203125 402.3992614746094 162.60067749023438Q455.198974609375 226.40045166015625 455.198974609375 354.20001220703125Q455.198974609375 481.99957275390625 402.3992614746094 546.5993347167969Q349.59954833984375 611.1990966796875 252.79998779296875 611.1990966796875H187.6007080078125Z"/>
</svg>
